<?xml version="1.0" encoding="UTF-8" standalone="no"?>
<!-- Created with Inkscape (http://www.inkscape.org/) -->

<svg
   version="1.1"
   id="svg2"
   xml:space="preserve"
   width="3779.4934"
   height="3779.4934"
   viewBox="0 0 3779.4934 3779.4934"
   sodipodi:docname="vecteezy_bee-mascot-logo_6031486.eps"
   xmlns:inkscape="http://www.inkscape.org/namespaces/inkscape"
   xmlns:sodipodi="http://sodipodi.sourceforge.net/DTD/sodipodi-0.dtd"
   xmlns="http://www.w3.org/2000/svg"
   xmlns:svg="http://www.w3.org/2000/svg"><defs
     id="defs6" /><sodipodi:namedview
     id="namedview4"
     pagecolor="#ffffff"
     bordercolor="#666666"
     borderopacity="1.0"
     inkscape:pageshadow="2"
     inkscape:pageopacity="0.0"
     inkscape:pagecheckerboard="0" /><g
     id="g8"
     inkscape:groupmode="layer"
     inkscape:label="ink_ext_XXXXXX"
     transform="matrix(1.3333333,0,0,-1.3333333,0,3779.4933)"><g
       id="g10"
       transform="scale(0.1)"><path
         d="M 0,0 H 28346.2 V 28346.2 H 0 V 0"
         style="fill:#ffffff;fill-opacity:1;fill-rule:evenodd;stroke:none"
         id="path12" /><path
         d="m 10693.9,17512.2 c -10,-108.5 -15.4,-218.4 -15.4,-329.5 v -6556.9 c 0,-1981.6 1620.2,-3603 3601.2,-3605 -1280.5,2 -2327.8,1623.4 -2327.8,3605 v 6556.9 c 0,111.1 3.3,221 9.8,329.5 h -1267.8 v 0"
         style="fill:#ef9412;fill-opacity:1;fill-rule:evenodd;stroke:none"
         id="path14" /><path
         d="m 14279.7,20787.7 c -1743.3,-1.9 -3206.9,-1257.7 -3533.1,-2909.4 h 5816.9 l -2.2,17.2 1038.6,1.1 c -140.3,648.6 -467.3,1229.9 -921.5,1684.1 -382.3,382.2 -854.7,674.6 -1381.5,841 -307.7,233.7 -653,365.4 -1017.2,366 v 0 0"
         style="fill:#2d2a29;fill-opacity:1;fill-rule:evenodd;stroke:none"
         id="path16" /><path
         d="m 14279.7,7020.8 c 1981.1,2 3601.2,1623.4 3601.2,3605 v 6556.9 c 0,111.1 -5.4,221 -15.3,329.5 h -1267.9 c 6.5,-108.5 9.8,-218.4 9.8,-329.5 v -6556.9 c 0,-1981.6 -1047.2,-3603 -2327.8,-3605 v 0"
         style="fill:#fbf7b1;fill-opacity:1;fill-rule:evenodd;stroke:none"
         id="path18" /><path
         d="m 16678.4,19580.7 c -382.3,382.2 -854.8,674.6 -1381.6,841 641.1,-486.6 1119,-1415.9 1264.5,-2526.2 l 1038.6,1.1 c -140.3,648.6 -467.3,1229.9 -921.5,1684.1 v 0 0"
         style="fill:#666866;fill-opacity:1;fill-rule:nonzero;stroke:none"
         id="path20" /><path
         d="m 14279.7,7020.8 c 1280.6,2 2327.8,1623.4 2327.8,3605 v 6556.9 c 0,224.8 -13.6,444.8 -39.3,658.5 h -4576.9 c -25.8,-213.7 -39.4,-433.7 -39.4,-658.5 v -6556.9 c 0,-1981.6 1047.3,-3603 2327.8,-3605 v 0 0"
         style="fill:#f6cf09;fill-opacity:1;fill-rule:evenodd;stroke:none"
         id="path22" /><path
         d="m 14279.7,20997.2 c 1049.2,0 2002.9,-429 2694.2,-1120.3 691.3,-691.2 1120.4,-1644.9 1120.4,-2694.2 v -6556.9 c 0,-1049.3 -429.1,-2003 -1120.4,-2694.2 -691.2,-691.3 -1644.9,-1120.4 -2694.2,-1120.4 -1049.2,0 -2003,429.1 -2694.2,1120.4 -691.2,691.2 -1120.3,1644.9 -1120.3,2694.2 v 6556.9 c 0,1049.3 429.1,2003 1120.3,2694.2 691.3,691.3 1645,1120.3 2694.2,1120.3 z m -2982.3,-11989.4 5968.9,7.7 c 203.7,375.1 338.7,792.3 388,1234.4 l -6748.3,-7.6 c 50.3,-442.3 186.5,-859.5 391.4,-1234.5 z m 5700.9,-410.1 -5431.8,-6.9 c 96.6,-128.3 201.9,-249.6 315.3,-363 615.5,-615.5 1464.4,-997.6 2397.9,-997.6 933.6,0 1782.4,382.1 2397.9,997.6 115.6,115.5 222.7,239.1 320.7,369.9 z m -320.7,10983 c -615.5,615.5 -1464.4,997.5 -2397.9,997.5 -933.5,0 -1782.4,-382 -2397.9,-997.5 -455.9,-456 -783.7,-1040 -923.1,-1691.6 l 6640.5,7.5 c -140.4,648.6 -467.3,1229.9 -921.6,1684.1 v 0 z m -5781,-2109.1 c -8.1,-95.3 -12.4,-191.6 -12.4,-288.9 v -918 l 6791,7.9 v 910.1 c 0,99.9 -4.4,198.8 -13,296.6 l -6765.6,-7.7 v 0 z m -12.4,-1624.3 V 12501 l 6791,7.6 v 3346.6 l -6791,-7.9 z m 0,-3763.7 v -1423.9 l 6791,7.6 v 1423.9 l -6791,-7.6 v 0"
         style="fill:#2d2a29;fill-opacity:1;fill-rule:nonzero;stroke:none"
         id="path24" /><path
         d="m 12559.9,20390 c 28.9,-87.3 21.1,-178.2 -14.9,-255.5 -111.7,-61.4 -219.2,-128.7 -322.1,-201.1 -143.3,2.7 -275.7,94.7 -323.2,238.4 l -718.7,2163.9 c -60.2,182.2 38.7,378.9 221,439.2 182.3,60.3 378.9,-38.6 439.2,-221 l 718.7,-2163.9 v 0 0"
         style="fill:#2d2a29;fill-opacity:1;fill-rule:nonzero;stroke:none"
         id="path26" /><path
         d="m 16659.8,20171.8 c -47.5,-143.7 -180,-235.7 -323.3,-238.4 -102.9,72.4 -210.4,139.7 -322.1,201.1 -36,77.3 -43.7,168.2 -14.8,255.5 l 718.7,2163.9 c 60.2,182.4 256.9,281.3 439.2,221 182.2,-60.3 281.3,-257 220.9,-439.2 l -718.6,-2163.9 v 0 0"
         style="fill:#2d2a29;fill-opacity:1;fill-rule:nonzero;stroke:none"
         id="path28" /><path
         d="m 11839.1,19580.7 c 382.4,382.2 854.8,674.6 1381.7,841 -641.2,-486.6 -1119,-1415.9 -1264.5,-2526.2 l -1038.6,1.1 c 140.2,648.6 467.2,1229.9 921.4,1684.1 v 0 0"
         style="fill:#252221;fill-opacity:1;fill-rule:nonzero;stroke:none"
         id="path30" /><path
         d="m 13362.4,7030.9 c 623.9,-86.1 1235.2,-85.1 1834.7,0 L 14281.6,5554 13362.4,7030.9 v 0 0"
         style="fill:#2d2a29;fill-opacity:1;fill-rule:evenodd;stroke:none"
         id="path32" /><path
         d="m 10693.9,17512.2 c -10,-108.5 -15.4,-218.4 -15.4,-329.5 v -6556.9 c 0,-1981.6 1620.2,-3603 3601.2,-3605 -1280.5,2 -2327.8,1623.4 -2327.8,3605 v 6556.9 c 0,111.1 3.3,221 9.8,329.5 h -1267.8 v 0"
         style="fill:#ef9412;fill-opacity:1;fill-rule:evenodd;stroke:none"
         id="path34" /><path
         d="m 14279.7,20787.7 c -1743.3,-1.9 -3206.9,-1257.7 -3533.1,-2909.4 h 5816.9 l -2.2,17.2 1038.6,1.1 c -140.3,648.6 -467.3,1229.9 -921.5,1684.1 -382.3,382.2 -854.7,674.6 -1381.5,841 -307.7,233.7 -653,365.4 -1017.2,366 v 0 0"
         style="fill:#2d2a29;fill-opacity:1;fill-rule:evenodd;stroke:none"
         id="path36" /><path
         d="m 14279.7,7020.8 c 1981.1,2 3601.2,1623.4 3601.2,3605 v 6556.9 c 0,111.1 -5.4,221 -15.3,329.5 h -1267.9 c 6.5,-108.5 9.8,-218.4 9.8,-329.5 v -6556.9 c 0,-1981.6 -1047.2,-3603 -2327.8,-3605 v 0"
         style="fill:#fbf7b1;fill-opacity:1;fill-rule:evenodd;stroke:none"
         id="path38" /><path
         d="m 16678.4,19580.7 c -382.3,382.2 -854.8,674.6 -1381.6,841 641.1,-486.6 1119,-1415.9 1264.5,-2526.2 l 1038.6,1.1 c -140.3,648.6 -467.3,1229.9 -921.5,1684.1 v 0 0"
         style="fill:#666866;fill-opacity:1;fill-rule:nonzero;stroke:none"
         id="path40" /><path
         d="m 14279.7,7020.8 c 1280.6,2 2327.8,1623.4 2327.8,3605 v 6556.9 c 0,224.8 -13.6,444.8 -39.3,658.5 h -4576.9 c -25.8,-213.7 -39.4,-433.7 -39.4,-658.5 v -6556.9 c 0,-1981.6 1047.3,-3603 2327.8,-3605 v 0 0"
         style="fill:#f6cf09;fill-opacity:1;fill-rule:evenodd;stroke:none"
         id="path42" /><path
         d="m 14014.3,18059.8 c 268.9,-1959.9 -365.4,-4017.2 -1893.6,-5500.8 -1528.3,-1483.5 -3603.54,-2056.5 -5554.59,-1729.5 -268.89,1959.9 365.35,4017.2 1893.67,5500.8 1528.28,1483.5 3603.52,2056.5 5554.52,1729.5 v 0"
         style="fill:#f1f1ee;fill-opacity:1;fill-rule:evenodd;stroke:none"
         id="path44" /><path
         d="m 8850.84,10855.4 c -754.2,-144.1 -1528.77,-152.6 -2284.73,-25.9 39.96,248.4 1008.87,360.8 2418.41,845.1 -69.46,-310.2 -67.82,-350.3 -133.68,-819.2 v 0"
         style="fill:#d7d6d1;fill-opacity:1;fill-rule:evenodd;stroke:none"
         id="path46" /><path
         d="m 14066.2,17504.3 c 89.6,-1786.6 -561.2,-3601.3 -1945.6,-4945.2 -869.3,-844 -1915.7,-1393.1 -3015.43,-1649.6 l 222.1,1079.7 c 2485.93,1085.8 3999.03,2942.9 4539.33,5571.2 72.5,15.5 139,-3.3 199.6,-56.1 v 0 0"
         style="fill:#d7d6d1;fill-opacity:1;fill-rule:evenodd;stroke:none"
         id="path48" /><path
         d="m 14208.7,18086 c 141.2,-1028.8 41,-2083.5 -299.4,-3072.2 -328,-952.8 -879,-1845.1 -1651.9,-2595.4 -772.8,-750.2 -1681.1,-1274.5 -2643.23,-1574.1 -999.05,-311.1 -2056.33,-380.1 -3080.36,-208.5 l -142.42,23.9 -19.72,143.6 c -141.14,1028.9 -40.93,2083.5 299.45,3072.3 327.98,952.7 878.96,1845 1651.86,2595.3 772.87,750.2 1681.22,1274.5 2643.32,1574.1 999,311.1 2056.3,380.1 3080.3,208.5 l 142.4,-23.9 19.7,-143.6 v 0 z m -671.3,-2944.7 c 304.7,885.2 405.2,1825.6 300.6,2747.3 -918.5,132 -1861.5,59.6 -2754.9,-218.6 -905.4,-281.9 -1759.91,-775 -2486.56,-1480.4 -726.55,-705.3 -1244.77,-1544.8 -1553.49,-2441.6 -304.72,-885.2 -405.25,-1825.6 -300.68,-2747.2 918.6,-132.1 1861.56,-59.7 2755,218.5 905.43,282 1759.93,775 2486.53,1480.4 726.5,705.3 1244.7,1544.8 1553.5,2441.6 v 0 0"
         style="fill:#2d2a29;fill-opacity:1;fill-rule:nonzero;stroke:none"
         id="path50" /><path
         d="m 14134.2,17992.6 c -675.9,-1202.1 -1843.6,-2276.3 -3150.4,-2942.4 -1227.99,-625.9 -2582.38,-893.8 -3774.75,-573.9 l 71.02,265.6 c 1122.25,-301 2407.44,-43.6 3578.93,553.6 1260.8,642.6 2385.8,1676.4 3035.4,2831.6 l 239.8,-134.5 v 0 0"
         style="fill:#2d2a29;fill-opacity:1;fill-rule:nonzero;stroke:none"
         id="path52" /><path
         d="m 10270.3,14731.6 c -254.6,-439.6 -477.76,-1000 -665.68,-1634.8 -200.77,-678.4 -360.97,-1441 -476.3,-2232.2 l -272.14,38.8 c 117.09,803.4 280.22,1579.1 484.91,2270.8 194,655.3 425.7,1236.1 691.51,1695.1 l 237.7,-137.7 v 0 0"
         style="fill:#2d2a29;fill-opacity:1;fill-rule:nonzero;stroke:none"
         id="path54" /><path
         d="m 7462.02,14698.3 c 1939.17,-415.4 4834.78,894.5 6297.28,3201.1 -1572.9,-1445.8 -3560.3,-2331.2 -5962.33,-2655.7 -157.72,-237.6 -269.36,-419.3 -334.94,-545.4 v 0 h -0.01"
         style="fill:#f1f1ee;fill-opacity:1;fill-rule:evenodd;stroke:none"
         id="path56" /><path
         d="m 10270.3,14731.6 c 1525,623.3 2723.8,1566.2 3596.3,2828.8 -761.5,-1648.5 -2317.7,-2699.3 -3755.8,-3128 63.7,127.2 116.9,227 159.5,299.2 v 0"
         style="fill:#ffffff;fill-opacity:1;fill-rule:evenodd;stroke:none"
         id="path58" /><path
         d="m 9887.76,14600.8 c -96.12,-204.8 -144.21,-307.1 -144.21,-307.1 -748.12,-224.7 -1593.98,-265.6 -2537.5,-122.9 83.76,183.2 125.64,274.7 125.64,274.7 736.31,-181.7 1588.36,-130 2556.07,155.3"
         style="fill:#ffffff;fill-opacity:1;fill-rule:evenodd;stroke:none"
         id="path60" /><path
         d="m 7462.02,14698.3 c 223.28,363.6 334.94,545.4 334.94,545.4 2542.84,-39.1 4530.24,846.1 5962.34,2655.7 -1247.7,-2147.5 -4318.4,-3693.7 -6297.28,-3201.1 v 0 0"
         style="fill:#d7d6d1;fill-opacity:1;fill-rule:evenodd;stroke:none"
         id="path62" /><path
         d="m 13759.3,17899.4 c -2316.9,314.6 -4537.4,-639.9 -5962.34,-2655.7 1772.36,1714 3839.74,2610.3 5962.34,2655.7"
         style="fill:#ffffff;fill-opacity:1;fill-rule:evenodd;stroke:none"
         id="path64" /><path
         d="m 14332.1,18059.8 c -268.9,-1959.9 365.4,-4017.2 1893.7,-5500.8 1528.3,-1483.5 3603.6,-2056.5 5554.7,-1729.5 268.8,1959.9 -365.5,4017.2 -1893.7,5500.8 -1528.3,1483.5 -3603.6,2056.5 -5554.7,1729.5 v 0"
         style="fill:#f1f1ee;fill-opacity:1;fill-rule:evenodd;stroke:none"
         id="path66" /><path
         d="m 19495.6,10855.4 c 754.3,-144.1 1528.9,-152.6 2284.9,-25.9 -40,248.4 -1009,360.8 -2418.4,845.1 69.4,-310.2 67.8,-350.3 133.5,-819.2 v 0"
         style="fill:#d7d6d1;fill-opacity:1;fill-rule:evenodd;stroke:none"
         id="path68" /><path
         d="m 14280.2,17504.3 c -89.6,-1786.6 561.2,-3601.3 1945.6,-4945.2 869.4,-844 1915.7,-1393.1 3015.5,-1649.6 l -222.1,1079.7 c -2486,1085.8 -3999.1,2942.9 -4539.3,5571.2 -72.5,15.5 -139.1,-3.3 -199.7,-56.1 v 0 0"
         style="fill:#d7d6d1;fill-opacity:1;fill-rule:evenodd;stroke:none"
         id="path70" /><path
         d="m 14137.7,18086 c -141.1,-1028.8 -40.9,-2083.5 299.5,-3072.2 327.9,-952.8 878.9,-1845.1 1651.8,-2595.4 772.9,-750.2 1681.3,-1274.5 2643.3,-1574.1 999.1,-311.1 2056.4,-380.1 3080.4,-208.5 l 142.5,23.9 19.7,143.6 c 141,1028.9 40.9,2083.5 -299.4,3072.3 -328.1,952.7 -879.1,1845 -1651.9,2595.3 -773,750.2 -1681.3,1274.5 -2643.3,1574.1 -999.1,311.1 -2056.4,380.1 -3080.4,208.5 l -142.5,-23.9 -19.7,-143.6 v 0 z m 671.4,-2944.7 c -304.7,885.2 -405.3,1825.6 -300.7,2747.3 918.6,132 1861.6,59.6 2755,-218.6 905.4,-281.9 1759.9,-775 2486.6,-1480.4 726.6,-705.3 1244.7,-1544.8 1553.5,-2441.6 304.8,-885.2 405.3,-1825.6 300.7,-2747.2 -918.7,-132.1 -1861.6,-59.7 -2755.1,218.5 -905.4,282 -1759.9,775 -2486.5,1480.4 -726.6,705.3 -1244.8,1544.8 -1553.5,2441.6 v 0 0"
         style="fill:#2d2a29;fill-opacity:1;fill-rule:nonzero;stroke:none"
         id="path72" /><path
         d="m 14212.2,17992.6 c 675.9,-1202.1 1843.6,-2276.3 3150.5,-2942.4 1228,-625.9 2582.4,-893.8 3774.8,-573.9 l -71.1,265.6 c -1122.2,-301 -2407.4,-43.6 -3578.9,553.6 -1260.8,642.6 -2385.9,1676.4 -3035.4,2831.6 l -239.9,-134.5 v 0 0"
         style="fill:#2d2a29;fill-opacity:1;fill-rule:nonzero;stroke:none"
         id="path74" /><path
         d="m 18076.3,14731.6 c 254.5,-439.6 477.6,-1000 665.5,-1634.8 200.8,-678.4 361,-1441 476.5,-2232.2 l 272.1,38.8 c -117.1,803.4 -280.3,1579.1 -485,2270.8 -194,655.3 -425.7,1236.1 -691.5,1695.1 l -237.6,-137.7 v 0"
         style="fill:#2d2a29;fill-opacity:1;fill-rule:nonzero;stroke:none"
         id="path76" /><path
         d="m 20884.5,14698.3 c -1939.2,-415.4 -4834.9,894.5 -6297.3,3201.1 1572.8,-1445.8 3560.2,-2331.2 5962.4,-2655.7 157.7,-237.6 269.4,-419.3 334.9,-545.4 v 0"
         style="fill:#f1f1ee;fill-opacity:1;fill-rule:evenodd;stroke:none"
         id="path78" /><path
         d="m 18076.3,14731.6 c -1525.2,623.3 -2723.9,1566.2 -3596.4,2828.8 761.5,-1648.5 2317.6,-2699.3 3755.8,-3128 -63.7,127.2 -116.9,227 -159.4,299.2 v 0"
         style="fill:#ffffff;fill-opacity:1;fill-rule:evenodd;stroke:none"
         id="path80" /><path
         d="m 18458.7,14600.8 c 96.3,-204.8 144.3,-307.1 144.3,-307.1 748.1,-224.7 1594,-265.6 2537.4,-122.9 -83.7,183.2 -125.6,274.7 -125.6,274.7 -736.3,-181.7 -1588.3,-130 -2556.1,155.3 v 0 0"
         style="fill:#ffffff;fill-opacity:1;fill-rule:evenodd;stroke:none"
         id="path82" /><path
         d="m 20884.5,14698.3 c -223.2,363.6 -334.9,545.4 -334.9,545.4 -2542.9,-39.1 -4530.4,846.1 -5962.4,2655.7 1247.7,-2147.5 4318.4,-3693.7 6297.4,-3201.1 h -0.1"
         style="fill:#d7d6d1;fill-opacity:1;fill-rule:evenodd;stroke:none"
         id="path84" /><path
         d="m 14587.2,17899.4 c 2316.9,314.6 4537.4,-639.9 5962.4,-2655.7 -1772.4,1714 -3839.8,2610.3 -5962.4,2655.7 v 0 0"
         style="fill:#ffffff;fill-opacity:1;fill-rule:evenodd;stroke:none"
         id="path86" /><path
         d="m 12559.9,20390 c 28.9,-87.3 21.1,-178.2 -14.9,-255.5 -111.7,-61.4 -219.2,-128.7 -322.1,-201.1 -143.3,2.7 -275.7,94.7 -323.2,238.4 l -718.7,2163.9 c -60.2,182.2 38.7,378.9 221,439.2 182.3,60.3 378.9,-38.6 439.2,-221 l 718.7,-2163.9 v 0 0"
         style="fill:#2d2a29;fill-opacity:1;fill-rule:nonzero;stroke:none"
         id="path88" /><path
         d="m 16659.8,20171.8 c -47.5,-143.7 -180,-235.7 -323.3,-238.4 -102.9,72.4 -210.4,139.7 -322.1,201.1 -36,77.3 -43.7,168.2 -14.8,255.5 l 718.7,2163.9 c 60.2,182.4 256.9,281.3 439.2,221 182.2,-60.3 281.3,-257 220.9,-439.2 l -718.6,-2163.9 v 0 0"
         style="fill:#2d2a29;fill-opacity:1;fill-rule:nonzero;stroke:none"
         id="path90" /><path
         d="m 11839.1,19580.7 c 382.4,382.2 854.8,674.6 1381.7,841 -641.2,-486.6 -1119,-1415.9 -1264.5,-2526.2 l -1038.6,1.1 c 140.2,648.6 467.2,1229.9 921.4,1684.1 v 0 0"
         style="fill:#252221;fill-opacity:1;fill-rule:nonzero;stroke:none"
         id="path92" /><path
         d="m 14279.6,20997.2 c 1049.2,0 2002.9,-429 2694.2,-1120.3 691.3,-691.2 1120.4,-1645 1120.4,-2694.2 v -6556.9 c 0,-1049.3 -429.1,-2003 -1120.4,-2694.3 -691.2,-691.2 -1645,-1120.3 -2694.2,-1120.3 -1049.2,0 -2003,429.1 -2694.2,1120.3 -691.2,691.3 -1120.3,1645 -1120.3,2694.3 v 6556.9 c 0,1049.2 429.1,2003 1120.3,2694.2 691.3,691.3 1645,1120.3 2694.2,1120.3 z m 3395.5,-7018.9 -6791,-7.8 V 12501 l 6791,7.6 z m -6791,409.6 6791,7.9 v 1459.4 l -6791,-7.9 z m 413.2,-5380.1 5968.8,7.7 c 203.8,375.1 338.8,792.3 388.1,1234.4 l -6748.3,-7.6 c 50.3,-442.2 186.5,-859.5 391.4,-1234.5 v 0 z m 5700.9,-410.1 -5431.8,-6.9 c 96.6,-128.3 201.9,-249.6 315.3,-362.9 615.5,-615.6 1464.4,-997.7 2397.9,-997.7 933.6,0 1782.4,382.1 2397.9,997.7 115.5,115.4 222.7,239 320.7,369.8 z m -320.7,10983 c -615.5,615.5 -1464.4,997.5 -2397.9,997.5 -933.5,0 -1782.4,-382 -2397.9,-997.5 -455.9,-456 -783.7,-1040 -923.1,-1691.6 l 6640.5,7.5 c -140.4,648.6 -467.4,1229.9 -921.6,1684.1 v 0 z m -5781,-2109.1 c -8.2,-95.3 -12.4,-191.6 -12.4,-288.9 v -918 l 6791,7.9 v 910.1 c 0,99.9 -4.4,198.8 -13,296.6 l -6765.6,-7.7 z m -12.4,-5388 v -1423.9 l 6791,7.6 v 1423.9 l -6791,-7.6 v 0"
         style="fill:#2d2a29;fill-opacity:1;fill-rule:nonzero;stroke:none"
         id="path94" /><path
         d="m 14014.3,18059.8 c 268.9,-1959.9 -365.4,-4017.2 -1893.6,-5500.8 -1528.3,-1483.5 -3603.54,-2056.5 -5554.59,-1729.5 -268.89,1959.9 365.35,4017.2 1893.67,5500.8 1528.28,1483.5 3603.52,2056.5 5554.52,1729.5 v 0"
         style="fill:#f1f1ee;fill-opacity:1;fill-rule:evenodd;stroke:none"
         id="path96" /><path
         d="m 8850.84,10855.4 c -754.2,-144.1 -1528.77,-152.6 -2284.73,-25.9 39.96,248.4 1008.87,360.8 2418.41,845.1 -69.46,-310.2 -67.82,-350.3 -133.68,-819.2 v 0"
         style="fill:#d7d6d1;fill-opacity:1;fill-rule:evenodd;stroke:none"
         id="path98" /><path
         d="m 14066.2,17504.3 c 89.6,-1786.6 -561.2,-3601.3 -1945.6,-4945.2 -869.3,-844 -1915.7,-1393.1 -3015.43,-1649.6 l 222.1,1079.7 c 2485.93,1085.8 3999.03,2942.9 4539.33,5571.2 72.5,15.5 139,-3.3 199.6,-56.1 v 0 0"
         style="fill:#d7d6d1;fill-opacity:1;fill-rule:evenodd;stroke:none"
         id="path100" /><path
         d="m 14208.7,18086 c 141.2,-1028.8 41,-2083.5 -299.4,-3072.2 -328,-952.8 -879,-1845.1 -1651.9,-2595.4 -772.8,-750.2 -1681.1,-1274.5 -2643.23,-1574.1 -999.05,-311.1 -2056.33,-380.1 -3080.36,-208.5 l -142.42,23.9 -19.72,143.6 c -141.14,1028.9 -40.93,2083.5 299.45,3072.3 327.98,952.7 878.96,1845 1651.86,2595.3 772.87,750.2 1681.22,1274.5 2643.32,1574.1 999,311.1 2056.3,380.1 3080.3,208.5 l 142.4,-23.9 19.7,-143.6 v 0 z m -671.3,-2944.7 c 304.7,885.2 405.2,1825.6 300.6,2747.3 -918.5,132 -1861.5,59.6 -2754.9,-218.6 -905.4,-281.9 -1759.91,-775 -2486.56,-1480.4 -726.55,-705.3 -1244.77,-1544.8 -1553.49,-2441.6 -304.72,-885.2 -405.25,-1825.6 -300.68,-2747.2 918.6,-132.1 1861.56,-59.7 2755,218.5 905.43,282 1759.93,775 2486.53,1480.4 726.5,705.3 1244.7,1544.8 1553.5,2441.6 v 0 0"
         style="fill:#2d2a29;fill-opacity:1;fill-rule:nonzero;stroke:none"
         id="path102" /><path
         d="m 14134.2,17992.6 c -675.9,-1202.1 -1843.6,-2276.3 -3150.4,-2942.4 -1227.99,-625.9 -2582.38,-893.8 -3774.75,-573.9 l 71.02,265.6 c 1122.25,-301 2407.44,-43.6 3578.93,553.6 1260.8,642.6 2385.8,1676.4 3035.4,2831.6 l 239.8,-134.5 v 0 0"
         style="fill:#2d2a29;fill-opacity:1;fill-rule:nonzero;stroke:none"
         id="path104" /><path
         d="m 10270.3,14731.6 c -254.6,-439.6 -477.76,-1000 -665.68,-1634.8 -200.77,-678.4 -360.97,-1441 -476.3,-2232.2 l -272.14,38.8 c 117.09,803.4 280.22,1579.1 484.91,2270.8 194,655.3 425.7,1236.1 691.51,1695.1 l 237.7,-137.7 v 0 0"
         style="fill:#2d2a29;fill-opacity:1;fill-rule:nonzero;stroke:none"
         id="path106" /><path
         d="m 7462.02,14698.3 c 1939.17,-415.4 4834.78,894.5 6297.28,3201.1 -1572.9,-1445.8 -3560.3,-2331.2 -5962.33,-2655.7 -157.72,-237.6 -269.36,-419.3 -334.94,-545.4 v 0 h -0.01"
         style="fill:#f1f1ee;fill-opacity:1;fill-rule:evenodd;stroke:none"
         id="path108" /><path
         d="m 10270.3,14731.6 c 1525,623.3 2723.8,1566.2 3596.3,2828.8 -761.5,-1648.5 -2317.7,-2699.3 -3755.8,-3128 63.7,127.2 116.9,227 159.5,299.2 v 0"
         style="fill:#ffffff;fill-opacity:1;fill-rule:evenodd;stroke:none"
         id="path110" /><path
         d="m 9887.76,14600.8 c -96.12,-204.8 -144.21,-307.1 -144.21,-307.1 -748.12,-224.7 -1593.98,-265.6 -2537.5,-122.9 83.76,183.2 125.64,274.7 125.64,274.7 736.31,-181.7 1588.36,-130 2556.07,155.3"
         style="fill:#ffffff;fill-opacity:1;fill-rule:evenodd;stroke:none"
         id="path112" /><path
         d="m 7462.02,14698.3 c 223.28,363.6 334.94,545.4 334.94,545.4 2542.84,-39.1 4530.24,846.1 5962.34,2655.7 -1247.7,-2147.5 -4318.4,-3693.7 -6297.28,-3201.1 v 0 0"
         style="fill:#d7d6d1;fill-opacity:1;fill-rule:evenodd;stroke:none"
         id="path114" /><path
         d="m 13759.3,17899.4 c -2316.9,314.6 -4537.4,-639.9 -5962.34,-2655.7 1772.36,1714 3839.74,2610.3 5962.34,2655.7"
         style="fill:#ffffff;fill-opacity:1;fill-rule:evenodd;stroke:none"
         id="path116" /><path
         d="m 14332.1,18059.8 c -268.9,-1959.9 365.4,-4017.2 1893.7,-5500.8 1528.3,-1483.5 3603.6,-2056.5 5554.7,-1729.5 268.8,1959.9 -365.5,4017.2 -1893.7,5500.8 -1528.3,1483.5 -3603.6,2056.5 -5554.7,1729.5 v 0"
         style="fill:#f1f1ee;fill-opacity:1;fill-rule:evenodd;stroke:none"
         id="path118" /><path
         d="m 19495.6,10855.4 c 754.3,-144.1 1528.9,-152.6 2284.9,-25.9 -40,248.4 -1009,360.8 -2418.4,845.1 69.4,-310.2 67.8,-350.3 133.5,-819.2 v 0"
         style="fill:#d7d6d1;fill-opacity:1;fill-rule:evenodd;stroke:none"
         id="path120" /><path
         d="m 14280.2,17504.3 c -89.6,-1786.6 561.2,-3601.3 1945.6,-4945.2 869.4,-844 1915.7,-1393.1 3015.5,-1649.6 l -222.1,1079.7 c -2486,1085.8 -3999.1,2942.9 -4539.3,5571.2 -72.5,15.5 -139.1,-3.3 -199.7,-56.1 v 0 0"
         style="fill:#d7d6d1;fill-opacity:1;fill-rule:evenodd;stroke:none"
         id="path122" /><path
         d="m 14137.7,18086 c -141.1,-1028.8 -40.9,-2083.5 299.5,-3072.2 327.9,-952.8 878.9,-1845.1 1651.8,-2595.4 772.9,-750.2 1681.3,-1274.5 2643.3,-1574.1 999.1,-311.1 2056.4,-380.1 3080.4,-208.5 l 142.5,23.9 19.7,143.6 c 141,1028.9 40.9,2083.5 -299.4,3072.3 -328.1,952.7 -879.1,1845 -1651.9,2595.3 -773,750.2 -1681.3,1274.5 -2643.3,1574.1 -999.1,311.1 -2056.4,380.1 -3080.4,208.5 l -142.5,-23.9 -19.7,-143.6 v 0 z m 671.4,-2944.7 c -304.7,885.2 -405.3,1825.6 -300.7,2747.3 918.6,132 1861.6,59.6 2755,-218.6 905.4,-281.9 1759.9,-775 2486.6,-1480.4 726.6,-705.3 1244.7,-1544.8 1553.5,-2441.6 304.8,-885.2 405.3,-1825.6 300.7,-2747.2 -918.7,-132.1 -1861.6,-59.7 -2755.1,218.5 -905.4,282 -1759.9,775 -2486.5,1480.4 -726.6,705.3 -1244.8,1544.8 -1553.5,2441.6 v 0 0"
         style="fill:#2d2a29;fill-opacity:1;fill-rule:nonzero;stroke:none"
         id="path124" /><path
         d="m 14212.2,17992.6 c 675.9,-1202.1 1843.6,-2276.3 3150.5,-2942.4 1228,-625.9 2582.4,-893.8 3774.8,-573.9 l -71.1,265.6 c -1122.2,-301 -2407.4,-43.6 -3578.9,553.6 -1260.8,642.6 -2385.9,1676.4 -3035.4,2831.6 l -239.9,-134.5 v 0 0"
         style="fill:#2d2a29;fill-opacity:1;fill-rule:nonzero;stroke:none"
         id="path126" /><path
         d="m 18076.3,14731.6 c 254.5,-439.6 477.6,-1000 665.5,-1634.8 200.8,-678.4 361,-1441 476.5,-2232.2 l 272.1,38.8 c -117.1,803.4 -280.3,1579.1 -485,2270.8 -194,655.3 -425.7,1236.1 -691.5,1695.1 l -237.6,-137.7 v 0"
         style="fill:#2d2a29;fill-opacity:1;fill-rule:nonzero;stroke:none"
         id="path128" /><path
         d="m 20884.5,14698.3 c -1939.2,-415.4 -4834.9,894.5 -6297.3,3201.1 1572.8,-1445.8 3560.2,-2331.2 5962.4,-2655.7 157.7,-237.6 269.4,-419.3 334.9,-545.4 v 0"
         style="fill:#f1f1ee;fill-opacity:1;fill-rule:evenodd;stroke:none"
         id="path130" /><path
         d="m 18076.3,14731.6 c -1525.2,623.3 -2723.9,1566.2 -3596.4,2828.8 761.5,-1648.5 2317.6,-2699.3 3755.8,-3128 -63.7,127.2 -116.9,227 -159.4,299.2 v 0"
         style="fill:#ffffff;fill-opacity:1;fill-rule:evenodd;stroke:none"
         id="path132" /><path
         d="m 18458.7,14600.8 c 96.3,-204.8 144.3,-307.1 144.3,-307.1 748.1,-224.7 1594,-265.6 2537.4,-122.9 -83.7,183.2 -125.6,274.7 -125.6,274.7 -736.3,-181.7 -1588.3,-130 -2556.1,155.3 v 0 0"
         style="fill:#ffffff;fill-opacity:1;fill-rule:evenodd;stroke:none"
         id="path134" /><path
         d="m 20884.5,14698.3 c -223.2,363.6 -334.9,545.4 -334.9,545.4 -2542.9,-39.1 -4530.4,846.1 -5962.4,2655.7 1247.7,-2147.5 4318.4,-3693.7 6297.4,-3201.1 h -0.1"
         style="fill:#d7d6d1;fill-opacity:1;fill-rule:evenodd;stroke:none"
         id="path136" /><path
         d="m 14587.2,17899.4 c 2316.9,314.6 4537.4,-639.9 5962.4,-2655.7 -1772.4,1714 -3839.8,2610.3 -5962.4,2655.7 v 0 0"
         style="fill:#ffffff;fill-opacity:1;fill-rule:evenodd;stroke:none"
         id="path138" /></g></g></svg>
